<svg width="100" height="100" viewBox="0 0 100 100" fill="none" xmlns="http://www.w3.org/2000/svg">
<g clip-path="url(#clip0_3_84)">
<path d="M84.5312 41.2969C81.5 39.5742 77.7129 40.8516 76.0723 43.9687L67.9902 60.4551C67.8388 60.7672 67.5743 61.0101 67.2505 61.1344C66.9266 61.2588 66.5676 61.2555 66.2461 61.125C65.9914 61.0236 65.7731 60.8479 65.6195 60.6208C65.4659 60.3937 65.3841 60.1257 65.3848 59.8516V14.0625C65.3848 11.3457 62.875 9.375 60.1563 9.375C57.4375 9.375 55.0781 11.3457 55.0781 14.0625V44.6562C55.0847 45.2276 54.8682 45.779 54.4747 46.1933C54.0812 46.6076 53.5416 46.8522 52.9707 46.875C52.6851 46.8805 52.4014 46.8289 52.1359 46.7234C51.8705 46.6179 51.6288 46.4605 51.4249 46.2604C51.2211 46.0604 51.0592 45.8217 50.9486 45.5583C50.8381 45.2949 50.7812 45.0122 50.7813 44.7266V4.6875C50.7813 1.9707 48.6445 0 45.9258 0C43.207 0 41.0156 1.9707 41.0156 4.6875V44.6562C41.0222 45.2276 40.8057 45.779 40.4122 46.1933C40.0187 46.6076 39.4792 46.8522 38.9082 46.875C38.6226 46.8805 38.3388 46.8289 38.0734 46.7234C37.808 46.6179 37.5663 46.4605 37.3624 46.2604C37.1586 46.0604 36.9967 45.8217 36.8861 45.5583C36.7756 45.2949 36.7187 45.0122 36.7188 44.7266V10.9375C36.7188 8.2207 34.3594 6.25 31.6406 6.25C28.9219 6.25 26.5625 8.41602 26.5625 11.1328V47.7812C26.5691 48.3526 26.3526 48.904 25.9591 49.3183C25.5656 49.7326 25.026 49.9772 24.4551 50C24.1695 50.0055 23.8857 49.9539 23.6203 49.8484C23.3549 49.7429 23.1132 49.5855 22.9093 49.3854C22.7055 49.1854 22.5435 48.9467 22.433 48.6833C22.3225 48.4199 22.2656 48.1372 22.2656 47.8516V23.4375C22.2656 20.7207 20.1016 18.75 17.3828 18.75C14.6641 18.75 12.4766 20.7461 12.5 23.4375V65.625C12.5 88.5566 26.5625 100 43.75 100H46.875C64.0625 100 69.4746 92.2656 73.4375 82.8125L86.8574 49.8047C88.1504 46.2891 87.5605 43.0176 84.5312 41.2969V41.2969Z" fill="black"/>
</g>
<defs>
<clipPath id="clip0_3_84">
<rect width="100" height="100" fill="white"/>
</clipPath>
</defs>
</svg>
