<svg width="20" height="20" viewBox="0 0 20 20" fill="none" xmlns="http://www.w3.org/2000/svg">
<g clip-path="url(#clip0_6_2)">
<path d="M10.5556 2.22217C10.4082 2.22217 10.2669 2.2807 10.1627 2.38489C10.0585 2.48907 10 2.63038 10 2.77772C10 2.92507 10.0585 3.06637 10.1627 3.17056C10.2669 3.27475 10.4082 3.33328 10.5556 3.33328H15.8833L10.7444 8.47217C10.6863 8.52197 10.6391 8.58326 10.6057 8.65218C10.5724 8.72111 10.5536 8.79618 10.5507 8.87269C10.5477 8.9492 10.5606 9.0255 10.5885 9.09679C10.6165 9.16808 10.6588 9.23283 10.713 9.28697C10.7671 9.34111 10.8319 9.38348 10.9032 9.41141C10.9744 9.43934 11.0507 9.45223 11.1273 9.44928C11.2038 9.44632 11.2788 9.42758 11.3478 9.39424C11.4167 9.36089 11.478 9.31366 11.5278 9.2555L16.6667 4.11661V9.44439C16.6667 9.59173 16.7252 9.73304 16.8294 9.83723C16.9336 9.94141 17.0749 9.99995 17.2222 9.99995C17.3696 9.99995 17.5109 9.94141 17.6151 9.83723C17.7192 9.73304 17.7778 9.59173 17.7778 9.44439V2.22217H10.5556Z" fill="white"/>
<path d="M2.22223 10.5556C2.22223 10.4082 2.28076 10.2669 2.38495 10.1627C2.48913 10.0585 2.63044 10 2.77778 10C2.92513 10 3.06643 10.0585 3.17062 10.1627C3.27481 10.2669 3.33334 10.4082 3.33334 10.5556V15.8833L8.47223 10.7444C8.52203 10.6863 8.58332 10.6391 8.65225 10.6057C8.72117 10.5724 8.79624 10.5536 8.87275 10.5507C8.94927 10.5477 9.02556 10.5606 9.09685 10.5885C9.16814 10.6165 9.23289 10.6588 9.28703 10.713C9.34118 10.7671 9.38354 10.8319 9.41147 10.9032C9.4394 10.9744 9.45229 11.0507 9.44934 11.1273C9.44638 11.2038 9.42764 11.2788 9.3943 11.3478C9.36095 11.4167 9.31372 11.478 9.25556 11.5278L4.11667 16.6667H9.44445C9.59179 16.6667 9.7331 16.7252 9.83729 16.8294C9.94148 16.9336 10 17.0749 10 17.2222C10 17.3696 9.94148 17.5109 9.83729 17.6151C9.7331 17.7192 9.59179 17.7778 9.44445 17.7778H2.22223V10.5556Z" fill="white"/>
</g>
<defs>
<clipPath id="clip0_6_2">
<rect width="20" height="20" fill="white"/>
</clipPath>
</defs>
</svg>
