<svg width="20" height="20" viewBox="0 0 20 20" fill="none" xmlns="http://www.w3.org/2000/svg">
<g clip-path="url(#clip0_4_683)">
<path d="M17.7778 8.33335H12.45L17.5889 3.19446C17.6799 3.08819 17.7274 2.95148 17.722 2.81166C17.7166 2.67184 17.6587 2.5392 17.5597 2.44026C17.4608 2.34132 17.3282 2.28336 17.1883 2.27796C17.0485 2.27256 16.9118 2.32012 16.8055 2.41113L11.6667 7.55002V2.22224C11.6667 2.0749 11.6081 1.93359 11.5039 1.82941C11.3997 1.72522 11.2584 1.66669 11.1111 1.66669C10.9638 1.66669 10.8224 1.72522 10.7183 1.82941C10.6141 1.93359 10.5555 2.0749 10.5555 2.22224V9.44446H17.7778C17.9251 9.44446 18.0664 9.38593 18.1706 9.28175C18.2748 9.17756 18.3333 9.03625 18.3333 8.88891C18.3333 8.74157 18.2748 8.60026 18.1706 8.49607C18.0664 8.39188 17.9251 8.33335 17.7778 8.33335Z" fill="white"/>
<path d="M2.22221 10.5555C2.07487 10.5555 1.93356 10.6141 1.82937 10.7183C1.72519 10.8224 1.66666 10.9638 1.66666 11.1111C1.66666 11.2584 1.72519 11.3997 1.82937 11.5039C1.93356 11.6081 2.07487 11.6667 2.22221 11.6667H7.54999L2.40555 16.8055C2.34739 16.8553 2.30015 16.9166 2.26681 16.9856C2.23346 17.0545 2.21472 17.1296 2.21177 17.2061C2.20881 17.2826 2.22171 17.3589 2.24964 17.4302C2.27757 17.5015 2.31993 17.5662 2.37407 17.6203C2.42821 17.6745 2.49296 17.7169 2.56425 17.7448C2.63555 17.7727 2.71184 17.7856 2.78835 17.7827C2.86486 17.7797 2.93994 17.761 3.00886 17.7276C3.07779 17.6943 3.13907 17.647 3.18888 17.5889L8.33332 12.45V17.7778C8.33332 17.9251 8.39185 18.0664 8.49604 18.1706C8.60023 18.2748 8.74154 18.3333 8.88888 18.3333C9.03622 18.3333 9.17753 18.2748 9.28172 18.1706C9.3859 18.0664 9.44443 17.9251 9.44443 17.7778V10.5555H2.22221Z" fill="white"/>
</g>
<defs>
<clipPath id="clip0_4_683">
<rect width="20" height="20" fill="white"/>
</clipPath>
</defs>
</svg>
