<svg width="100" height="100" viewBox="0 0 100 100" fill="none" xmlns="http://www.w3.org/2000/svg">
<g clip-path="url(#clip0_3_119)">
<g clip-path="url(#clip1_3_119)">
<path d="M50 0C40.1109 0 30.444 2.93245 22.2215 8.42652C13.999 13.9206 7.59043 21.7295 3.80605 30.8658C0.0216642 40.0021 -0.968502 50.0555 0.960758 59.7545C2.89002 69.4536 7.65206 78.3627 14.6447 85.3553C21.6373 92.3479 30.5464 97.11 40.2455 99.0392C49.9445 100.968 59.9979 99.9783 69.1342 96.194C78.2705 92.4096 86.0794 86.0009 91.5735 77.7785C97.0676 69.556 100 59.8891 100 50C99.9746 36.747 94.6986 24.044 85.3273 14.6727C75.956 5.30142 63.253 0.0254133 50 0ZM55.7692 73.0769H53.8462V76.9231C53.8462 77.9431 53.4409 78.9214 52.7197 79.6427C51.9984 80.364 51.0201 80.7692 50 80.7692C48.9799 80.7692 48.0017 80.364 47.2804 79.6427C46.5591 78.9214 46.1539 77.9431 46.1539 76.9231V73.0769H38.4616C37.4415 73.0769 36.4632 72.6717 35.7419 71.9504C35.0206 71.2291 34.6154 70.2508 34.6154 69.2308C34.6154 68.2107 35.0206 67.2324 35.7419 66.5111C36.4632 65.7898 37.4415 65.3846 38.4616 65.3846H55.7692C57.2993 65.3846 58.7668 64.7768 59.8487 63.6948C60.9306 62.6129 61.5385 61.1455 61.5385 59.6154C61.5385 58.0853 60.9306 56.6179 59.8487 55.5359C58.7668 54.454 57.2993 53.8461 55.7692 53.8461H44.2308C40.6606 53.8461 37.2366 52.4279 34.712 49.9034C32.1875 47.3788 30.7692 43.9548 30.7692 40.3846C30.7692 36.8144 32.1875 33.3904 34.712 30.8659C37.2366 28.3413 40.6606 26.9231 44.2308 26.9231H46.1539V23.0769C46.1539 22.0569 46.5591 21.0786 47.2804 20.3573C48.0017 19.636 48.9799 19.2308 50 19.2308C51.0201 19.2308 51.9984 19.636 52.7197 20.3573C53.4409 21.0786 53.8462 22.0569 53.8462 23.0769V26.9231H61.5385C62.5585 26.9231 63.5368 27.3283 64.2581 28.0496C64.9794 28.7709 65.3846 29.7492 65.3846 30.7692C65.3846 31.7893 64.9794 32.7676 64.2581 33.4889C63.5368 34.2102 62.5585 34.6154 61.5385 34.6154H44.2308C42.7007 34.6154 41.2333 35.2232 40.1513 36.3051C39.0694 37.3871 38.4616 38.8545 38.4616 40.3846C38.4616 41.9147 39.0694 43.3821 40.1513 44.4641C41.2333 45.546 42.7007 46.1538 44.2308 46.1538H55.7692C59.3395 46.1538 62.7635 47.5721 65.288 50.0966C67.8125 52.6212 69.2308 56.0452 69.2308 59.6154C69.2308 63.1856 67.8125 66.6096 65.288 69.1341C62.7635 71.6586 59.3395 73.0769 55.7692 73.0769Z" fill="white"/>
</g>
</g>
<defs>
<clipPath id="clip0_3_119">
<rect width="100" height="100" fill="white"/>
</clipPath>
<clipPath id="clip1_3_119">
<rect width="100" height="100" fill="white"/>
</clipPath>
</defs>
</svg>
