<svg width="100" height="100" viewBox="0 0 100 100" fill="none" xmlns="http://www.w3.org/2000/svg">
<g clip-path="url(#clip0_3_90)">
<path d="M89.832 10.4004C89.5466 10.0868 89.2006 9.83432 88.8149 9.65823C88.4292 9.48213 88.0117 9.38607 87.5878 9.37585C87.1639 9.36563 86.7424 9.44145 86.3486 9.59875C85.9548 9.75605 85.5971 9.99154 85.2969 10.291L82.8809 12.6953C82.5881 12.9883 82.4236 13.3856 82.4236 13.7998C82.4236 14.214 82.5881 14.6113 82.8809 14.9043L85.0957 17.1152C85.2409 17.2611 85.4135 17.3768 85.6035 17.4558C85.7935 17.5348 85.9973 17.5754 86.2031 17.5754C86.4089 17.5754 86.6127 17.5348 86.8027 17.4558C86.9928 17.3768 87.1654 17.2611 87.3105 17.1152L89.666 14.7715C90.8574 13.582 90.9687 11.6445 89.832 10.4004ZM77.9961 17.5781L42.7383 52.7734C42.5245 52.9863 42.3691 53.2507 42.2871 53.541L40.6562 58.3984C40.6172 58.5302 40.6144 58.6701 40.6482 58.8034C40.6821 58.9366 40.7512 59.0583 40.8484 59.1555C40.9456 59.2527 41.0673 59.3218 41.2005 59.3557C41.3338 59.3895 41.4737 59.3867 41.6055 59.3476L46.459 57.7168C46.7493 57.6348 47.0137 57.4794 47.2266 57.2656L82.4219 22.0039C82.7475 21.6748 82.9301 21.2305 82.9301 20.7676C82.9301 20.3046 82.7475 19.8603 82.4219 19.5312L80.4785 17.5781C80.149 17.2495 79.7026 17.065 79.2373 17.065C78.772 17.065 78.3256 17.2495 77.9961 17.5781V17.5781Z" fill="black"/>
<path d="M75.457 37.8242L51.6504 61.6777C50.7303 62.6001 49.5994 63.2845 48.3555 63.6719L43.2969 65.3652C42.0963 65.7043 40.8271 65.717 39.62 65.4023C38.4129 65.0875 37.3116 64.4566 36.4294 63.5745C35.5473 62.6924 34.9164 61.591 34.6016 60.3839C34.2869 59.1768 34.2996 57.9076 34.6387 56.707L36.332 51.6484C36.7182 50.4049 37.4013 49.2741 38.3223 48.3535L62.1758 24.543C62.3944 24.3246 62.5434 24.0462 62.6039 23.7431C62.6643 23.4401 62.6335 23.1259 62.5154 22.8403C62.3973 22.5547 62.1971 22.3106 61.9403 22.1388C61.6834 21.9669 61.3813 21.8751 61.0723 21.875H20.3125C17.4117 21.875 14.6297 23.0273 12.5785 25.0785C10.5273 27.1297 9.375 29.9117 9.375 32.8125V79.6875C9.375 82.5883 10.5273 85.3703 12.5785 87.4215C14.6297 89.4727 17.4117 90.625 20.3125 90.625H67.1875C70.0883 90.625 72.8703 89.4727 74.9215 87.4215C76.9727 85.3703 78.125 82.5883 78.125 79.6875V38.9277C78.1249 38.6187 78.0331 38.3166 77.8612 38.0597C77.6894 37.8029 77.4453 37.6027 77.1597 37.4846C76.8741 37.3665 76.5599 37.3357 76.2569 37.3961C75.9538 37.4566 75.6754 37.6056 75.457 37.8242Z" fill="black"/>
</g>
<defs>
<clipPath id="clip0_3_90">
<rect width="100" height="100" fill="white"/>
</clipPath>
</defs>
</svg>
