<svg width="50" height="50" viewBox="0 0 50 50" fill="none" xmlns="http://www.w3.org/2000/svg">
<g clip-path="url(#clip0_4_1046)">
<g clip-path="url(#clip1_4_1046)">
<path d="M32.7778 23.3333H27.45L32.5889 18.1944C32.6799 18.0881 32.7274 17.9514 32.722 17.8116C32.7166 17.6718 32.6587 17.5391 32.5597 17.4402C32.4608 17.3413 32.3282 17.2833 32.1883 17.2779C32.0485 17.2725 31.9118 17.3201 31.8055 17.4111L26.6667 22.55V17.2222C26.6667 17.0748 26.6081 16.9335 26.5039 16.8293C26.3997 16.7252 26.2584 16.6666 26.1111 16.6666C25.9638 16.6666 25.8224 16.7252 25.7183 16.8293C25.6141 16.9335 25.5555 17.0748 25.5555 17.2222V24.4444H32.7778C32.9251 24.4444 33.0664 24.3859 33.1706 24.2817C33.2748 24.1775 33.3333 24.0362 33.3333 23.8888C33.3333 23.7415 33.2748 23.6002 33.1706 23.496C33.0664 23.3918 32.9251 23.3333 32.7778 23.3333Z" fill="white"/>
<path d="M17.2222 25.5555C17.0749 25.5555 16.9336 25.6141 16.8294 25.7183C16.7252 25.8224 16.6667 25.9638 16.6667 26.1111C16.6667 26.2584 16.7252 26.3997 16.8294 26.5039C16.9336 26.6081 17.0749 26.6667 17.2222 26.6667H22.55L17.4055 31.8055C17.3474 31.8553 17.3002 31.9166 17.2668 31.9856C17.2335 32.0545 17.2147 32.1296 17.2118 32.2061C17.2088 32.2826 17.2217 32.3589 17.2496 32.4302C17.2776 32.5015 17.3199 32.5662 17.3741 32.6203C17.4282 32.6745 17.493 32.7169 17.5643 32.7448C17.6355 32.7727 17.7118 32.7856 17.7884 32.7827C17.8649 32.7797 17.9399 32.761 18.0089 32.7276C18.0778 32.6943 18.1391 32.647 18.1889 32.5889L23.3333 27.45V32.7778C23.3333 32.9251 23.3919 33.0664 23.496 33.1706C23.6002 33.2748 23.7415 33.3333 23.8889 33.3333C24.0362 33.3333 24.1775 33.2748 24.2817 33.1706C24.3859 33.0664 24.4444 32.9251 24.4444 32.7778V25.5555H17.2222Z" fill="white"/>
</g>
</g>
<defs>
<clipPath id="clip0_4_1046">
<rect width="50" height="50" rx="10" fill="white"/>
</clipPath>
<clipPath id="clip1_4_1046">
<rect width="20" height="20" fill="white" transform="translate(15 15)"/>
</clipPath>
</defs>
</svg>
