<svg width="100" height="100" viewBox="0 0 100 100" fill="none" xmlns="http://www.w3.org/2000/svg">
<path d="M50 96.3028C48.4561 96.3008 46.9485 95.8343 45.6733 94.9639C26.7825 82.1401 18.6026 73.3473 14.0909 67.85C4.47599 56.1318 -0.127132 44.1012 0.00266913 31.0731C0.154103 16.1436 12.1318 4 26.7032 4C37.2988 4 44.6373 9.96843 48.9111 14.9393C49.0465 15.0952 49.2138 15.2202 49.4016 15.3059C49.5895 15.3915 49.7935 15.4358 50 15.4358C50.2065 15.4358 50.4105 15.3915 50.5984 15.3059C50.7862 15.2202 50.9535 15.0952 51.0889 14.9393C55.3627 9.96362 62.7013 4 73.2968 4C87.8682 4 99.8459 16.1436 99.9973 31.0755C100.127 44.106 95.5192 56.1366 85.9091 67.8524C81.3974 73.3497 73.2175 82.1425 54.3267 94.9663C53.0512 95.8359 51.5437 96.3015 50 96.3028V96.3028Z" fill="black"/>
</svg>
