<svg width="100" height="100" viewBox="0 0 100 100" fill="none" xmlns="http://www.w3.org/2000/svg">
<g clip-path="url(#clip0_3_122)">
<path d="M39.1914 68.75H28.125C23.1522 68.75 18.3831 66.7746 14.8667 63.2583C11.3504 59.7419 9.375 54.9728 9.375 50C9.375 45.0272 11.3504 40.2581 14.8667 36.7417C18.3831 33.2254 23.1522 31.25 28.125 31.25H38.9473M61.0527 31.25H71.875C76.8478 31.25 81.6169 33.2254 85.1333 36.7417C88.6496 40.2581 90.625 45.0272 90.625 50C90.625 54.9728 88.6496 59.7419 85.1333 63.2583C81.6169 66.7746 76.8478 68.75 71.875 68.75H60.8086M33.0215 50H67.3691" stroke="white" stroke-width="10" stroke-linecap="round" stroke-linejoin="round"/>
</g>
<defs>
<clipPath id="clip0_3_122">
<rect width="100" height="100" fill="white"/>
</clipPath>
</defs>
</svg>
