<svg width="39" height="22" viewBox="0 0 39 22" fill="none" xmlns="http://www.w3.org/2000/svg">
<path fill-rule="evenodd" clip-rule="evenodd" d="M30.4951 0.0526983C30.398 0.0881008 29.256 0.535283 27.9574 1.04639C26.6589 1.55749 25.4862 1.99903 25.3514 2.02755C25.0574 2.08981 24.9673 2.07467 24.2065 1.83469C23.3765 1.57297 22.5534 1.38105 21.7343 1.25833C20.7771 1.11492 18.3463 1.10201 17.4414 1.2356C16.5473 1.36757 15.7804 1.54131 14.9309 1.80432C14.3641 1.97981 14.0761 2.04501 13.8708 2.04426C13.6218 2.04335 13.2857 1.9277 10.9838 1.0509C8.38954 0.0627116 8.37703 0.0585355 8.00202 0.0601015C7.55505 0.0619523 7.31701 0.160472 7.0272 0.463718C6.6434 0.865247 6.67327 0.388263 6.6558 6.39397C6.63953 11.9882 6.65409 12.5154 6.8488 13.3929C7.18395 14.9032 7.87715 16.2934 8.8843 17.475C9.33915 18.0087 10.3018 18.9017 10.864 19.3115C12.8897 20.7882 15.3792 21.7046 18.0648 21.9622C18.8334 22.0359 20.7823 21.9962 21.5335 21.8914C25.9363 21.2776 29.5692 18.9588 31.2735 15.6746C31.8446 14.5739 32.1912 13.3828 32.3032 12.1362C32.3433 11.6892 32.3558 9.90342 32.3446 6.22787C32.3287 1.00211 32.3277 0.958499 32.2237 0.746132C32.0961 0.485406 31.8596 0.254815 31.5822 0.120371C31.3234 -0.00500879 30.7509 -0.0406485 30.4951 0.0526983ZM15.5717 11.4805C16.1177 11.6736 16.6487 12.216 16.8174 12.7531C17.2187 14.0309 16.2076 15.3158 14.8008 15.3158C13.64 15.3158 12.7129 14.433 12.7129 13.3277C12.7129 12.3805 13.408 11.5711 14.3875 11.3778C14.6908 11.3179 15.2486 11.3663 15.5717 11.4805ZM24.5435 11.3762C25.5399 11.5304 26.2872 12.3638 26.2872 13.3209C26.2872 15.248 23.7353 16.0448 22.5035 14.5023C22.0104 13.885 21.9623 12.9916 22.3854 12.3093C22.6598 11.8668 23.2385 11.4803 23.7767 11.3802C24.0795 11.3239 24.2013 11.3233 24.5435 11.3762Z" fill="white"/>
<path d="M39 5.01944C39 2.26443 36.7666 0.0310669 34.0116 0.0310669V11.8896C36.7666 11.8896 39 9.65624 39 6.90124V5.01944Z" fill="white"/>
<path d="M0 5.06983C0 2.287 2.25593 0.0310669 5.03876 0.0310669V11.9372C2.25593 11.9372 0 9.6813 0 6.89847V5.06983Z" fill="white"/>
</svg>
