<svg width="85" height="67" viewBox="0 0 85 67" fill="none" xmlns="http://www.w3.org/2000/svg">
<g opacity="0.7" filter="url(#filter0_f_109_6)">
<path fill-rule="evenodd" clip-rule="evenodd" d="M55.1869 20.0643C55.0749 20.1076 53.7572 20.6535 52.2589 21.2774C50.7605 21.9014 49.4074 22.4404 49.252 22.4752C48.9127 22.5512 48.8088 22.5327 47.9309 22.2398C46.9732 21.9203 46.0234 21.686 45.0784 21.5362C43.9739 21.3611 41.1691 21.3453 40.1251 21.5084C39.0934 21.6695 38.2085 21.8816 37.2283 22.2027C36.5743 22.4169 36.242 22.4965 36.0051 22.4956C35.7178 22.4945 35.33 22.3533 32.6739 21.2829C29.6806 20.0766 29.6661 20.0715 29.2334 20.0734C28.7177 20.0756 28.443 20.1959 28.1086 20.5661C27.6658 21.0563 27.7003 20.474 27.6801 27.8057C27.6613 34.635 27.6781 35.2787 27.9028 36.3499C28.2895 38.1936 29.0893 39.8907 30.2514 41.3333C30.7763 41.9848 31.887 43.075 32.5357 43.5752C34.8731 45.378 37.7455 46.4967 40.8443 46.8112C41.7312 46.9012 43.9799 46.8526 44.8467 46.7248C49.9269 45.9754 54.1186 43.1446 56.0851 39.1353C56.7441 37.7916 57.1441 36.3375 57.2732 34.8157C57.3195 34.27 57.334 32.09 57.3211 27.6029C57.3027 21.2234 57.3015 21.1701 57.1816 20.9109C57.0342 20.5926 56.7614 20.3111 56.4413 20.1469C56.1427 19.9939 55.4822 19.9504 55.1869 20.0643ZM37.9677 34.0153C38.5977 34.251 39.2103 34.9132 39.405 35.5689C39.8681 37.1287 38.7014 38.6973 37.0782 38.6973C35.7387 38.6973 34.669 37.6197 34.669 36.2703C34.669 35.114 35.4711 34.1259 36.6013 33.8898C36.9512 33.8167 37.5949 33.8758 37.9677 34.0153ZM48.3198 33.8879C49.4695 34.0762 50.3317 35.0936 50.3317 36.262C50.3317 38.6145 47.3872 39.5872 45.9659 37.7042C45.397 36.9506 45.3415 35.8599 45.8297 35.027C46.1462 34.4868 46.814 34.015 47.435 33.8928C47.7844 33.824 47.9249 33.8233 48.3198 33.8879Z" fill="url(#paint0_linear_109_6)"/>
<path d="M65 25.7936C65 22.6148 62.423 20.0378 59.2442 20.0378V20.0378V34.5145V34.5145C62.423 34.5145 65 31.9376 65 28.7587V25.7936Z" fill="url(#paint1_linear_109_6)"/>
<path d="M20 25.8517C20 22.6408 22.603 20.0378 25.814 20.0378V20.0378V34.5727V34.5727C22.603 34.5727 20 31.9697 20 28.7587V25.8517Z" fill="url(#paint2_linear_109_6)"/>
</g>
<path fill-rule="evenodd" clip-rule="evenodd" d="M55.1869 20.0643C55.0749 20.1076 53.7572 20.6535 52.2589 21.2774C50.7605 21.9014 49.4074 22.4404 49.252 22.4752C48.9127 22.5512 48.8088 22.5327 47.9309 22.2398C46.9732 21.9203 46.0234 21.686 45.0784 21.5362C43.9739 21.3611 41.1691 21.3453 40.1251 21.5084C39.0934 21.6695 38.2085 21.8816 37.2283 22.2027C36.5743 22.4169 36.242 22.4965 36.0051 22.4956C35.7178 22.4945 35.33 22.3533 32.6739 21.2829C29.6806 20.0766 29.6661 20.0715 29.2334 20.0734C28.7177 20.0756 28.443 20.1959 28.1086 20.5661C27.6658 21.0563 27.7003 20.474 27.6801 27.8057C27.6613 34.635 27.6781 35.2787 27.9028 36.3499C28.2895 38.1936 29.0893 39.8907 30.2514 41.3333C30.7763 41.9848 31.887 43.075 32.5357 43.5752C34.8731 45.378 37.7455 46.4967 40.8443 46.8112C41.7312 46.9012 43.9799 46.8526 44.8467 46.7248C49.9269 45.9754 54.1186 43.1446 56.0851 39.1353C56.7441 37.7916 57.1441 36.3375 57.2732 34.8157C57.3195 34.27 57.334 32.09 57.3211 27.6029C57.3027 21.2234 57.3015 21.1701 57.1816 20.9109C57.0342 20.5926 56.7614 20.3111 56.4413 20.1469C56.1427 19.9939 55.4822 19.9504 55.1869 20.0643ZM37.9677 34.0153C38.5977 34.251 39.2103 34.9132 39.405 35.5689C39.8681 37.1287 38.7014 38.6973 37.0782 38.6973C35.7387 38.6973 34.669 37.6197 34.669 36.2703C34.669 35.114 35.4711 34.1259 36.6013 33.8898C36.9512 33.8167 37.5949 33.8758 37.9677 34.0153ZM48.3198 33.8879C49.4695 34.0762 50.3317 35.0936 50.3317 36.262C50.3317 38.6145 47.3872 39.5872 45.9659 37.7042C45.397 36.9506 45.3415 35.8599 45.8297 35.027C46.1462 34.4868 46.814 34.015 47.435 33.8928C47.7844 33.824 47.9249 33.8233 48.3198 33.8879Z" fill="url(#paint3_linear_109_6)"/>
<path d="M65 25.7936C65 22.6148 62.423 20.0378 59.2442 20.0378V20.0378V34.5145V34.5145C62.423 34.5145 65 31.9376 65 28.7587V25.7936Z" fill="url(#paint4_linear_109_6)"/>
<path d="M20 25.8517C20 22.6408 22.603 20.0378 25.814 20.0378V20.0378V34.5727V34.5727C22.603 34.5727 20 31.9697 20 28.7587V25.8517Z" fill="url(#paint5_linear_109_6)"/>
<defs>
<filter id="filter0_f_109_6" x="0" y="0" width="85" height="66.8573" filterUnits="userSpaceOnUse" color-interpolation-filters="sRGB">
<feFlood flood-opacity="0" result="BackgroundImageFix"/>
<feBlend mode="normal" in="SourceGraphic" in2="BackgroundImageFix" result="shape"/>
<feGaussianBlur stdDeviation="10" result="effect1_foregroundBlur_109_6"/>
</filter>
<linearGradient id="paint0_linear_109_6" x1="42.5" y1="20" x2="42.5" y2="46.8573" gradientUnits="userSpaceOnUse">
<stop offset="0.510417" stop-color="#0029FF"/>
<stop offset="0.510517" stop-color="#FFF500"/>
</linearGradient>
<linearGradient id="paint1_linear_109_6" x1="62.1221" y1="20.0378" x2="62.1221" y2="34.5145" gradientUnits="userSpaceOnUse">
<stop offset="0.510417" stop-color="#0029FF"/>
<stop offset="0.510517" stop-color="#FFF500"/>
</linearGradient>
<linearGradient id="paint2_linear_109_6" x1="22.907" y1="20.0378" x2="22.907" y2="34.5727" gradientUnits="userSpaceOnUse">
<stop offset="0.510417" stop-color="#0029FF"/>
<stop offset="0.510517" stop-color="#FFF500"/>
</linearGradient>
<linearGradient id="paint3_linear_109_6" x1="42.5" y1="20" x2="42.5" y2="46.8573" gradientUnits="userSpaceOnUse">
<stop offset="0.510417" stop-color="#0029FF"/>
<stop offset="0.510517" stop-color="#FFF500"/>
</linearGradient>
<linearGradient id="paint4_linear_109_6" x1="62.1221" y1="20.0378" x2="62.1221" y2="34.5145" gradientUnits="userSpaceOnUse">
<stop offset="0.510417" stop-color="#0029FF"/>
<stop offset="0.510517" stop-color="#FFF500"/>
</linearGradient>
<linearGradient id="paint5_linear_109_6" x1="22.907" y1="20.0378" x2="22.907" y2="34.5727" gradientUnits="userSpaceOnUse">
<stop offset="0.510417" stop-color="#0029FF"/>
<stop offset="0.510517" stop-color="#FFF500"/>
</linearGradient>
</defs>
</svg>
