<svg width="100" height="100" viewBox="0 0 100 100" fill="none" xmlns="http://www.w3.org/2000/svg">
<g clip-path="url(#clip0_3_102)">
<path d="M31.25 50C31.25 49.1712 31.5792 48.3763 32.1653 47.7903C32.7513 47.2042 33.5462 46.875 34.375 46.875H62.5V26.5625C62.5 20.3125 55.9004 15.625 50 15.625H20.3125C17.4126 15.6281 14.6325 16.7814 12.5819 18.8319C10.5314 20.8825 9.3781 23.6626 9.375 26.5625V73.4375C9.3781 76.3374 10.5314 79.1175 12.5819 81.1681C14.6325 83.2186 17.4126 84.3719 20.3125 84.375H51.5625C54.4624 84.3719 57.2425 83.2186 59.2931 81.1681C61.3436 79.1175 62.4969 76.3374 62.5 73.4375V53.125H34.375C33.5462 53.125 32.7513 52.7958 32.1653 52.2097C31.5792 51.6237 31.25 50.8288 31.25 50ZM89.709 47.791L74.084 32.166C73.4932 31.6047 72.7064 31.2964 71.8916 31.3068C71.0767 31.3173 70.2981 31.6456 69.7219 32.2219C69.1456 32.7981 68.8173 33.5767 68.8068 34.3916C68.7964 35.2064 69.1047 35.9932 69.666 36.584L79.9551 46.875H62.5V53.125H79.9551L69.666 63.416C69.3636 63.7033 69.1218 64.0482 68.9548 64.4305C68.7878 64.8127 68.699 65.2245 68.6937 65.6416C68.6883 66.0586 68.7666 66.4726 68.9237 66.859C69.0809 67.2453 69.3138 67.5963 69.6087 67.8913C69.9037 68.1862 70.2547 68.4191 70.641 68.5763C71.0274 68.7334 71.4414 68.8117 71.8584 68.8063C72.2755 68.801 72.6873 68.7122 73.0695 68.5452C73.4518 68.3782 73.7967 68.1364 74.084 67.834L89.709 52.209C90.2946 51.623 90.6236 50.8284 90.6236 50C90.6236 49.1716 90.2946 48.377 89.709 47.791V47.791Z" fill="black"/>
</g>
<defs>
<clipPath id="clip0_3_102">
<rect width="100" height="100" fill="white"/>
</clipPath>
</defs>
</svg>
