<svg width="45" height="27" viewBox="0 0 45 27" fill="none" xmlns="http://www.w3.org/2000/svg">
<g clip-path="url(#clip0_20_2)">
<path fill-rule="evenodd" clip-rule="evenodd" d="M35.187 0.0643334C35.0749 0.107552 33.7573 0.653467 32.2589 1.27742C30.7606 1.90137 29.4075 2.44039 29.252 2.47521C28.9128 2.55121 28.8088 2.53273 27.9309 2.23976C26.9732 1.92025 26.0235 1.68597 25.0784 1.53615C23.9739 1.36107 21.1692 1.34532 20.1251 1.5084C19.0934 1.66951 18.2085 1.88161 17.2284 2.20268C16.5743 2.41692 16.242 2.49652 16.0051 2.4956C15.7178 2.4945 15.33 2.35331 12.6739 1.28292C9.6806 0.0765572 9.66616 0.0714592 9.23345 0.0733709C8.71771 0.0756303 8.44306 0.195902 8.10867 0.5661C7.6658 1.05628 7.70026 0.473985 7.68012 7.80566C7.66133 14.635 7.67813 15.2787 7.9028 16.3499C8.28953 18.1936 9.08937 19.8908 10.2515 21.3333C10.7763 21.9848 11.887 23.075 12.5357 23.5752C14.8731 25.378 17.7455 26.4967 20.8443 26.8111C21.7312 26.9012 23.9799 26.8526 24.8467 26.7248C29.9269 25.9754 34.1187 23.1446 36.0851 19.1353C36.7441 17.7916 37.1441 16.3375 37.2732 14.8157C37.3195 14.2699 37.334 12.09 37.3211 7.6029C37.3027 1.22337 37.3016 1.17012 37.1816 0.910867C37.0343 0.592579 36.7614 0.311075 36.4413 0.146947C36.1427 -0.00611478 35.4822 -0.0496231 35.187 0.0643334ZM17.9677 14.0153C18.5978 14.251 19.2104 14.9131 19.405 15.5688C19.8681 17.1287 18.7014 18.6973 17.0782 18.6973C15.7388 18.6973 14.6691 17.6197 14.6691 16.2703C14.6691 15.114 15.4711 14.1259 16.6013 13.8898C16.9512 13.8167 17.5949 13.8758 17.9677 14.0153ZM28.3198 13.8879C29.4695 14.0762 30.3317 15.0936 30.3317 16.262C30.3317 18.6145 27.3872 19.5872 25.9659 17.7042C25.397 16.9506 25.3415 15.8599 25.8297 15.027C26.1462 14.4868 26.814 14.015 27.435 13.8928C27.7844 13.824 27.9249 13.8233 28.3198 13.8879Z" fill="url(#paint0_linear_20_2)"/>
<path d="M45 6.9186C45 3.73975 42.423 1.16279 39.2441 1.16279V15.6395C42.423 15.6395 45 13.0626 45 9.88372V6.9186Z" fill="url(#paint1_linear_20_2)"/>
<path d="M0 6.97676C0 3.76579 2.60299 1.16279 5.81396 1.16279V15.6977C2.60299 15.6977 0 13.0947 0 9.88372V6.97676Z" fill="url(#paint2_linear_20_2)"/>
</g>
<defs>
<linearGradient id="paint0_linear_20_2" x1="22.5" y1="0" x2="22.5" y2="26.8573" gradientUnits="userSpaceOnUse">
<stop stop-color="#00A3FF"/>
<stop offset="1" stop-color="#005F95"/>
</linearGradient>
<linearGradient id="paint1_linear_20_2" x1="45" y1="1.12501" x2="39.375" y2="15.1875" gradientUnits="userSpaceOnUse">
<stop stop-color="#00A3FF"/>
<stop offset="1" stop-color="#005F95"/>
</linearGradient>
<linearGradient id="paint2_linear_20_2" x1="-4.81009e-08" y1="1.12501" x2="5.625" y2="15.75" gradientUnits="userSpaceOnUse">
<stop stop-color="#00A3FF"/>
<stop offset="1" stop-color="#005F95"/>
</linearGradient>
<clipPath id="clip0_20_2">
<rect width="45" height="27" fill="white"/>
</clipPath>
</defs>
</svg>
