<svg width="100" height="100" viewBox="0 0 100 100" fill="none" xmlns="http://www.w3.org/2000/svg">
<g clip-path="url(#clip0_3_12)">
<path d="M85.9531 66.6621C85.6289 66.2715 85.3106 65.8809 84.9981 65.5039C80.7012 60.3066 78.1016 57.1699 78.1016 42.457C78.1016 34.8398 76.2793 28.5898 72.6875 23.9023C70.0391 20.4395 66.459 17.8125 61.7402 15.8711C61.6795 15.8373 61.6253 15.793 61.5801 15.7402C59.8828 10.0566 55.2383 6.25 50 6.25C44.7617 6.25 40.1192 10.0566 38.4219 15.7344C38.3766 15.7852 38.3231 15.8281 38.2637 15.8613C27.252 20.3945 21.9004 29.0918 21.9004 42.4512C21.9004 57.1699 19.3047 60.3066 15.0039 65.498C14.6914 65.875 14.3731 66.2578 14.0488 66.6562C13.2113 67.6663 12.6807 68.895 12.5198 70.1972C12.3588 71.4994 12.5743 72.8204 13.1406 74.0039C14.3457 76.543 16.9141 78.1191 19.8457 78.1191H80.1758C83.0938 78.1191 85.6445 76.5449 86.8535 74.0176C87.4223 72.8338 87.6398 71.5117 87.4803 70.208C87.3207 68.9044 86.7907 67.6738 85.9531 66.6621V66.6621ZM50 93.75C52.8223 93.7477 55.5914 92.9816 58.0136 91.5329C60.4358 90.0842 62.4207 88.007 63.7578 85.5215C63.8208 85.4024 63.8519 85.269 63.8481 85.1343C63.8444 84.9996 63.8058 84.8682 63.7362 84.7528C63.6666 84.6374 63.5684 84.542 63.451 84.4758C63.3337 84.4096 63.2012 84.3749 63.0664 84.375H36.9375C36.8026 84.3745 36.6699 84.409 36.5522 84.4751C36.4346 84.5411 36.3361 84.6365 36.2663 84.752C36.1964 84.8674 36.1577 84.999 36.1538 85.1338C36.15 85.2687 36.1811 85.4022 36.2442 85.5215C37.5811 88.0067 39.5657 90.0837 41.9875 91.5324C44.4093 92.9811 47.178 93.7474 50 93.75Z" fill="black"/>
</g>
<defs>
<clipPath id="clip0_3_12">
<rect width="100" height="100" fill="white"/>
</clipPath>
</defs>
</svg>
