<svg width="100" height="100" viewBox="0 0 100 100" fill="none" xmlns="http://www.w3.org/2000/svg">
<g clip-path="url(#clip0_3_112)">
<path d="M92.3828 7.62696C91.7438 6.98806 90.9337 6.54749 90.05 6.35829C89.1664 6.16909 88.247 6.23933 87.4023 6.56055L9.27148 36.1328H9.25585C8.355 36.4793 7.58306 37.0954 7.04547 37.897C6.50788 38.6987 6.23085 39.6467 6.25222 40.6116C6.27358 41.5766 6.59231 42.5114 7.16485 43.2885C7.7374 44.0655 8.53585 44.6469 9.45117 44.9531L9.53124 44.9785L36.3477 56.4297C36.8707 56.5885 37.4262 56.6073 37.9588 56.4843C38.4914 56.3612 38.9824 56.1006 39.3828 55.7285L82.4219 15.625C82.5501 15.4968 82.7024 15.395 82.8699 15.3256C83.0375 15.2562 83.2171 15.2205 83.3984 15.2205C83.5798 15.2205 83.7594 15.2562 83.9269 15.3256C84.0945 15.395 84.2467 15.4968 84.375 15.625C84.5032 15.7532 84.605 15.9055 84.6744 16.0731C84.7438 16.2406 84.7795 16.4202 84.7795 16.6016C84.7795 16.7829 84.7438 16.9625 84.6744 17.1301C84.605 17.2976 84.5032 17.4499 84.375 17.5781L44.2695 60.5977C43.8974 60.9981 43.6368 61.4891 43.5138 62.0216C43.3908 62.5542 43.4096 63.1098 43.5684 63.6328L55.0234 90.4649C55.0352 90.5039 55.0469 90.5391 55.0605 90.5762C55.6855 92.3867 57.2676 93.6641 59.1797 93.75H59.375C60.3403 93.7555 61.2849 93.4705 62.0861 92.932C62.8872 92.3935 63.5078 91.6264 63.8672 90.7305L93.4355 12.6211C93.7613 11.7759 93.8353 10.8545 93.6485 9.96819C93.4616 9.08189 93.022 8.26869 92.3828 7.62696Z" fill="white"/>
</g>
<defs>
<clipPath id="clip0_3_112">
<rect width="100" height="100" fill="white"/>
</clipPath>
</defs>
</svg>
