<svg width="100" height="100" viewBox="0 0 100 100" fill="none" xmlns="http://www.w3.org/2000/svg">
<g clip-path="url(#clip0_3_44)">
<path d="M94.002 55.1816L57.1133 77.252C56.2007 77.8072 55.1557 78.1072 54.0876 78.1206C53.0194 78.134 51.9672 77.8603 51.041 77.3281C50.036 76.7429 49.2038 75.9021 48.6289 74.8912C48.0539 73.8803 47.7568 72.7352 47.7676 71.5723V56.1328L12.4707 77.2578C11.5581 77.8131 10.5132 78.1131 9.44499 78.1265C8.37683 78.1399 7.32467 77.8662 6.39844 77.334C5.39344 76.7488 4.56122 75.908 3.98629 74.8971C3.41136 73.8861 3.11421 72.7411 3.125 71.5781V28.4141C3.11366 27.2508 3.41057 26.1052 3.98553 25.0939C4.5605 24.0825 5.39302 23.2415 6.39844 22.6563C7.32467 22.124 8.37683 21.8503 9.44499 21.8637C10.5132 21.8771 11.5581 22.1772 12.4707 22.7324L47.7676 43.8672V28.4219C47.7548 27.2573 48.0511 26.1101 48.6261 25.0973C49.2012 24.0844 50.0344 23.2421 51.041 22.6563C51.9672 22.124 53.0194 21.8503 54.0876 21.8637C55.1557 21.8771 56.2007 22.1772 57.1133 22.7324L94.002 44.8027C94.8789 45.3521 95.6019 46.1152 96.1031 47.0206C96.6042 47.9259 96.8672 48.9437 96.8672 49.9785C96.8672 51.0133 96.6042 52.0311 96.1031 52.9365C95.6019 53.8418 94.8789 54.605 94.002 55.1543V55.1816Z" fill="black"/>
</g>
<defs>
<clipPath id="clip0_3_44">
<rect width="100" height="100" fill="white"/>
</clipPath>
</defs>
</svg>
