<svg width="100" height="100" viewBox="0 0 100 100" fill="none" xmlns="http://www.w3.org/2000/svg">
<g clip-path="url(#clip0_3_96)">
<path d="M74.5005 65.0644C72.8171 65.0638 71.1511 65.4036 69.6031 66.0632C68.0551 66.7228 66.6571 67.6886 65.4937 68.9022L36.5909 52.6804C37.1507 50.5832 37.1507 48.3763 36.5909 46.279L65.4937 30.0573C67.5984 32.2339 70.4264 33.5705 73.448 33.8165C76.4697 34.0624 79.4775 33.201 81.9081 31.3935C84.3387 29.586 86.0253 26.9566 86.6519 23.9976C87.2785 21.0387 86.8021 17.9535 85.312 15.3198C83.8219 12.6861 81.4203 10.6848 78.5571 9.69067C75.6939 8.69658 72.5656 8.77795 69.7582 9.91955C66.9508 11.0611 64.657 13.1846 63.3065 15.8922C61.956 18.5998 61.6415 21.7056 62.4218 24.6279L33.5189 40.8497C31.7925 39.054 29.5669 37.8147 27.1286 37.2911C24.6902 36.7675 22.1506 36.9837 19.8364 37.9118C17.5222 38.8399 15.5393 40.4375 14.1428 42.499C12.7463 44.5605 12 46.9916 12 49.4797C12 51.9678 12.7463 54.399 14.1428 56.4605C15.5393 58.522 17.5222 60.1195 19.8364 61.0476C22.1506 61.9757 24.6902 62.1919 27.1286 61.6683C29.5669 61.1448 31.7925 59.9054 33.5189 58.1098L62.4218 74.3315C61.7517 76.8482 61.8883 79.511 62.8125 81.9463C63.7366 84.3816 65.402 86.4671 67.5748 87.9102C69.7476 89.3533 72.3189 90.0816 74.9278 89.9927C77.5366 89.9039 80.0521 89.0025 82.1213 87.415C84.1904 85.8275 85.7094 83.6336 86.465 81.1411C87.2205 78.6486 87.1749 75.9827 86.3343 73.5175C85.4937 71.0522 83.9005 68.9114 81.7781 67.3953C79.6558 65.8793 77.1108 65.0642 74.5005 65.0644Z" fill="black"/>
</g>
<defs>
<clipPath id="clip0_3_96">
<rect width="100" height="100" fill="white"/>
</clipPath>
</defs>
</svg>
