<svg width="100" height="100" viewBox="0 0 100 100" fill="none" xmlns="http://www.w3.org/2000/svg">
<g clip-path="url(#clip0_3_20)">
<path d="M50 90.625C72.4366 90.625 90.625 72.4366 90.625 50C90.625 27.5634 72.4366 9.375 50 9.375C27.5634 9.375 9.375 27.5634 9.375 50C9.375 72.4366 27.5634 90.625 50 90.625Z" stroke="black" stroke-width="5" stroke-miterlimit="10"/>
<path d="M50 34.375V65.625C54.144 65.625 58.1183 63.9788 61.0485 61.0485C63.9788 58.1183 65.625 54.144 65.625 50C65.625 45.856 63.9788 41.8817 61.0485 38.9515C58.1183 36.0212 54.144 34.375 50 34.375ZM50 9.375V34.375C45.856 34.375 41.8817 36.0212 38.9515 38.9515C36.0212 41.8817 34.375 45.856 34.375 50C34.375 54.144 36.0212 58.1183 38.9515 61.0485C41.8817 63.9788 45.856 65.625 50 65.625V90.625C27.5625 90.625 9.375 72.4375 9.375 50C9.375 27.5625 27.5625 9.375 50 9.375Z" fill="black"/>
</g>
<defs>
<clipPath id="clip0_3_20">
<rect width="100" height="100" fill="white"/>
</clipPath>
</defs>
</svg>
