<svg width="500" height="500" viewBox="0 0 500 500" fill="none" xmlns="http://www.w3.org/2000/svg">
<rect width="500" height="500" fill="#CCCCCC"/>
<path fill-rule="evenodd" clip-rule="evenodd" d="M348.676 146.5C347.805 146.837 337.556 151.083 325.903 155.935C314.249 160.788 303.725 164.981 302.516 165.252C299.877 165.843 299.069 165.699 292.24 163.42C284.792 160.935 277.405 159.113 270.054 157.948C261.464 156.586 239.649 156.464 231.528 157.732C223.504 158.985 216.622 160.635 208.998 163.132C203.911 164.798 201.327 165.417 199.484 165.41C197.249 165.402 194.233 164.304 173.575 155.978C150.293 146.595 150.181 146.556 146.816 146.571C142.804 146.588 140.668 147.524 138.067 150.403C134.623 154.216 134.891 149.687 134.734 206.711C134.588 259.828 134.719 264.834 136.466 273.166C139.474 287.506 145.695 300.706 154.734 311.926C158.815 316.993 167.454 325.472 172.5 329.363C190.68 343.384 213.021 352.085 237.122 354.531C244.021 355.231 261.511 354.854 268.252 353.859C307.765 348.031 340.367 326.014 355.662 294.83C360.788 284.379 363.898 273.07 364.903 261.233C365.263 256.989 365.376 240.033 365.275 205.134C365.132 155.515 365.123 155.101 364.19 153.085C363.044 150.609 360.922 148.419 358.432 147.143C356.11 145.952 350.973 145.614 348.676 146.5ZM214.749 255.008C219.649 256.841 224.414 261.991 225.928 267.091C229.53 279.223 220.456 291.423 207.83 291.423C197.412 291.423 189.093 283.042 189.093 272.546C189.093 263.553 195.331 255.868 204.121 254.032C206.843 253.463 211.849 253.923 214.749 255.008ZM295.265 254.017C304.207 255.481 310.913 263.395 310.913 272.482C310.913 290.779 288.012 298.345 276.957 283.699C272.532 277.838 272.101 269.355 275.897 262.877C278.359 258.675 283.553 255.006 288.383 254.055C291.101 253.52 292.194 253.515 295.265 254.017Z" fill="#999999"/>
<path d="M425 191.061C425 166.337 404.957 146.294 380.233 146.294V146.294V258.891V258.891C404.957 258.891 425 238.848 425 214.123V191.061Z" fill="#999999"/>
<path d="M75 191.514C75 166.539 95.2455 146.294 120.22 146.294V146.294V259.343V259.343C95.2455 259.343 75 239.097 75 214.123V191.514Z" fill="#999999"/>
</svg>
