<svg width="100" height="100" viewBox="0 0 100 100" fill="none" xmlns="http://www.w3.org/2000/svg">
<g clip-path="url(#clip0_3_107)">
<path d="M92.5117 41.0156C89.7773 38.9883 86.418 37.5 82.8711 36.6973C82.2887 36.5663 81.7556 36.2723 81.3341 35.8497C80.9125 35.4271 80.6198 34.8932 80.4902 34.3105C78.9668 27.5234 75.6875 21.7031 70.8672 17.293C65.2637 12.1582 57.8535 9.33398 50 9.33398C43.0957 9.33398 36.7188 11.498 31.5684 15.5937C28.0778 18.3739 25.2681 21.9144 23.3535 25.9453C23.1459 26.3864 22.8381 26.7727 22.4545 27.0735C22.0709 27.3743 21.6223 27.5813 21.1445 27.6777C15.9199 28.7324 11.2031 30.9727 7.60156 34.1465C2.62891 38.541 0 44.3828 0 51.0527C0 57.7949 2.83008 63.9434 7.9668 68.3887C12.873 72.625 19.4785 74.959 26.5625 74.959H46.875V45.0039L39.709 52.1699C39.4098 52.4691 39.053 52.7043 38.6602 52.8615C38.2674 53.0187 37.8468 53.0944 37.4238 53.0842C37.0009 53.074 36.5844 52.978 36.1997 52.802C35.8149 52.6261 35.4699 52.3738 35.1855 52.0605C34.0527 50.8164 34.1621 48.877 35.3516 47.6875L47.791 35.25C48.377 34.6644 49.1716 34.3354 50 34.3354C50.8284 34.3354 51.623 34.6644 52.209 35.25L64.6484 47.6836C65.875 48.9121 65.9453 50.9258 64.7246 52.1582C64.435 52.4507 64.0905 52.6831 63.7108 52.8421C63.3311 53.001 62.9238 53.0834 62.5122 53.0845C62.1006 53.0856 61.6928 53.0054 61.3123 52.8484C60.9318 52.6915 60.5861 52.4609 60.2949 52.1699L53.125 45.0039V74.959H77.3438C83.4648 74.959 89.0449 73.2402 93.0566 70.1211C97.5996 66.5859 100 61.5273 100 55.5059C100 49.6582 97.4102 44.6445 92.5117 41.0156ZM46.875 87.541C46.875 88.3698 47.2042 89.1647 47.7903 89.7507C48.3763 90.3368 49.1712 90.666 50 90.666C50.8288 90.666 51.6237 90.3368 52.2097 89.7507C52.7958 89.1647 53.125 88.3698 53.125 87.541V74.959H46.875V87.541Z" fill="white"/>
</g>
<defs>
<clipPath id="clip0_3_107">
<rect width="100" height="100" fill="white"/>
</clipPath>
</defs>
</svg>
