<svg width="100" height="100" viewBox="0 0 100 100" fill="none" xmlns="http://www.w3.org/2000/svg">
<g clip-path="url(#clip0_3_52)">
<path d="M45.1875 81.25C44.1882 81.2493 43.2155 80.9283 42.4121 80.334C42.3672 80.3027 42.3262 80.2695 42.2832 80.2344L24.4199 65.6055H10.8125C9.5693 65.6055 8.37701 65.1116 7.49794 64.2325C6.61886 63.3535 6.125 62.1612 6.125 60.918V39.0762C6.125 37.833 6.61886 36.6407 7.49794 35.7616C8.37701 34.8825 9.5693 34.3887 10.8125 34.3887H24.416L42.2793 19.7598C42.3223 19.7246 42.3633 19.6914 42.4082 19.6602C43.1066 19.146 43.9339 18.8356 44.7981 18.7635C45.6623 18.6915 46.5296 18.8606 47.3035 19.2521C48.0773 19.6436 48.7274 20.2421 49.1814 20.981C49.6354 21.7199 49.8755 22.5703 49.875 23.4375V76.5625C49.875 77.8057 49.3811 78.998 48.5021 79.8771C47.623 80.7561 46.4307 81.25 45.1875 81.25Z" fill="black"/>
<path d="M59 40L69 50M79 60L69 50M69 50L79 40L59 60" stroke="black" stroke-width="5" stroke-linecap="round" stroke-linejoin="round"/>
</g>
<defs>
<clipPath id="clip0_3_52">
<rect width="100" height="100" fill="white"/>
</clipPath>
</defs>
</svg>
