<svg width="100" height="100" viewBox="0 0 100 100" fill="none" xmlns="http://www.w3.org/2000/svg">
<g clip-path="url(#clip0_3_47)">
<path d="M45.3125 81.25C44.314 81.25 43.3419 80.9296 42.5391 80.3359C42.4944 80.3049 42.4514 80.2717 42.4102 80.2363L24.5625 65.625H10.9375C9.6943 65.625 8.50201 65.1311 7.62294 64.2521C6.74386 63.373 6.25 62.1807 6.25 60.9375V39.0625C6.25 37.8193 6.74386 36.627 7.62294 35.7479C8.50201 34.8689 9.6943 34.375 10.9375 34.375H24.5605L42.4062 19.7637C42.4475 19.7283 42.4905 19.6951 42.5352 19.6641C43.2332 19.1506 44.06 18.8407 44.9236 18.7688C45.7872 18.6969 46.6538 18.8658 47.4272 19.2568C48.2006 19.6477 48.8504 20.2454 49.3046 20.9834C49.7588 21.7214 49.9995 22.5709 50 23.4375V76.5625C50 77.8057 49.5061 78.998 48.6271 79.8771C47.748 80.7561 46.5557 81.25 45.3125 81.25ZM62.5 65.625C61.9667 65.6249 61.4424 65.4883 60.9768 65.2283C60.5113 64.9682 60.12 64.5934 59.8402 64.1394C59.5605 63.6854 59.4016 63.1674 59.3786 62.6346C59.3556 62.1019 59.4693 61.5721 59.709 61.0957C61.5625 57.4102 62.502 53.6738 62.502 50C62.502 46.2148 61.5918 42.5898 59.7188 38.9199C59.3599 38.1838 59.3044 37.3362 59.5641 36.5595C59.8238 35.7828 60.3781 35.1391 61.1076 34.7669C61.8371 34.3948 62.6836 34.3238 63.4649 34.5694C64.2461 34.815 64.8998 35.3575 65.2852 36.0801C67.6152 40.6484 68.75 45.2031 68.75 50C68.75 54.6602 67.5781 59.3379 65.293 63.9043C65.0327 64.4218 64.6336 64.8567 64.1404 65.1606C63.6472 65.4644 63.0793 65.6252 62.5 65.625Z" fill="black"/>
<path d="M71.875 75C71.3264 75.0001 70.7874 74.8558 70.3123 74.5816C69.8371 74.3074 69.4425 73.9129 69.1681 73.4378C68.8938 72.9627 68.7493 72.4238 68.7493 71.8752C68.7493 71.3266 68.8937 70.7876 69.168 70.3125C72.8613 63.8848 75 58.498 75 50C75 41.373 72.8652 36.0234 69.1758 29.6992C68.7712 28.984 68.6645 28.1383 68.8789 27.345C69.0933 26.5518 69.6115 25.8749 70.3213 25.4609C71.0311 25.047 71.8754 24.9292 72.6714 25.1332C73.4674 25.3372 74.151 25.8465 74.5742 26.5508C78.6953 33.6152 81.25 40.002 81.25 50C81.25 59.8496 78.6992 66.2676 74.584 73.4375C74.3095 73.913 73.9146 74.3077 73.439 74.582C72.9634 74.8563 72.424 75.0005 71.875 75V75Z" fill="black"/>
<path d="M81.25 84.375C80.6873 84.3746 80.1351 84.2222 79.6518 83.934C79.1684 83.6457 78.7719 83.2324 78.504 82.7374C78.2362 82.2425 78.1069 81.6845 78.13 81.1222C78.153 80.56 78.3274 80.0143 78.6348 79.543C83.9551 71.3809 87.5 63.2344 87.5 50C87.5 37.0117 83.9492 28.7852 78.6152 20.4316C78.3944 20.0854 78.2439 19.699 78.1724 19.2946C78.1009 18.8902 78.1097 18.4757 78.1984 18.0747C78.2871 17.6737 78.4539 17.2941 78.6893 16.9575C78.9247 16.621 79.2241 16.3341 79.5703 16.1133C79.9166 15.8924 80.3029 15.742 80.7074 15.6705C81.1118 15.5989 81.5263 15.6078 81.9273 15.6965C82.3283 15.7851 82.7079 15.9519 83.0444 16.1873C83.381 16.4227 83.6678 16.7221 83.8887 17.0684C89.8066 26.3457 93.75 35.4961 93.75 50C93.75 62.6465 90.8867 72.1933 83.8672 82.957C83.5833 83.3924 83.1953 83.75 82.7383 83.9976C82.2813 84.2452 81.7698 84.3749 81.25 84.375V84.375Z" fill="black"/>
</g>
<defs>
<clipPath id="clip0_3_47">
<rect width="100" height="100" fill="white"/>
</clipPath>
</defs>
</svg>
