<svg width="100" height="100" viewBox="0 0 100 100" fill="none" xmlns="http://www.w3.org/2000/svg">
<g clip-path="url(#clip0_3_50)">
<path d="M45.3125 81.25C44.314 81.25 43.3419 80.9296 42.5391 80.3359C42.4944 80.3049 42.4514 80.2717 42.4102 80.2363L24.5625 65.625H10.9375C9.6943 65.625 8.50201 65.1311 7.62294 64.2521C6.74386 63.373 6.25 62.1807 6.25 60.9375V39.0625C6.25 37.8193 6.74386 36.627 7.62294 35.7479C8.50201 34.8689 9.6943 34.375 10.9375 34.375H24.5605L42.4062 19.7637C42.4475 19.7283 42.4905 19.6951 42.5352 19.6641C43.2332 19.1506 44.06 18.8407 44.9236 18.7688C45.7872 18.6969 46.6538 18.8658 47.4272 19.2568C48.2006 19.6477 48.8504 20.2454 49.3046 20.9834C49.7588 21.7214 49.9995 22.5709 50 23.4375V76.5625C50 77.8057 49.5061 78.998 48.6271 79.8771C47.748 80.7561 46.5557 81.25 45.3125 81.25ZM62.5 65.625C61.9667 65.6249 61.4424 65.4883 60.9768 65.2283C60.5113 64.9682 60.12 64.5934 59.8402 64.1394C59.5605 63.6854 59.4016 63.1674 59.3786 62.6346C59.3556 62.1019 59.4693 61.5721 59.709 61.0957C61.5625 57.4102 62.502 53.6738 62.502 50C62.502 46.2148 61.5918 42.5898 59.7188 38.9199C59.3599 38.1838 59.3044 37.3362 59.5641 36.5595C59.8238 35.7828 60.3781 35.1391 61.1076 34.7669C61.8371 34.3948 62.6836 34.3238 63.4649 34.5694C64.2461 34.815 64.8998 35.3575 65.2852 36.0801C67.6152 40.6484 68.75 45.2031 68.75 50C68.75 54.6602 67.5781 59.3379 65.293 63.9043C65.0327 64.4218 64.6336 64.8567 64.1404 65.1606C63.6472 65.4644 63.0793 65.6252 62.5 65.625Z" fill="black"/>
<path d="M71.875 75C71.3264 75.0001 70.7874 74.8558 70.3123 74.5816C69.8371 74.3074 69.4425 73.9129 69.1681 73.4378C68.8938 72.9627 68.7493 72.4238 68.7493 71.8752C68.7493 71.3266 68.8937 70.7876 69.168 70.3125C72.8613 63.8848 75 58.498 75 50C75 41.373 72.8652 36.0234 69.1758 29.6992C68.7712 28.984 68.6645 28.1383 68.8789 27.345C69.0933 26.5518 69.6115 25.8749 70.3213 25.4609C71.0311 25.047 71.8754 24.9292 72.6714 25.1332C73.4674 25.3372 74.151 25.8465 74.5742 26.5508C78.6953 33.6152 81.25 40.002 81.25 50C81.25 59.8496 78.6992 66.2676 74.584 73.4375C74.3095 73.913 73.9146 74.3077 73.439 74.582C72.9634 74.8563 72.424 75.0005 71.875 75V75Z" fill="black"/>
</g>
<defs>
<clipPath id="clip0_3_50">
<rect width="100" height="100" fill="white"/>
</clipPath>
</defs>
</svg>
