<?xml version="1.0" standalone="no"?>
<!DOCTYPE svg PUBLIC "-//W3C//DTD SVG 20010904//EN"
 "http://www.w3.org/TR/2001/REC-SVG-20010904/DTD/svg10.dtd">
<svg version="1.0" xmlns="http://www.w3.org/2000/svg"
 width="1440.000000pt" height="1440.000000pt" viewBox="0 0 1440.000000 1440.000000"
 preserveAspectRatio="xMidYMid meet">
<metadata>
Created by potrace 1.14, written by Peter Selinger 2001-2017
</metadata>
<g transform="translate(0.000000,1440.000000) scale(0.100000,-0.100000)"
fill="#000000" stroke="none">
<path d="M11295 11510 c-16 -4 -59 -19 -95 -34 -36 -15 -74 -31 -85 -35 -11
-5 -31 -13 -45 -19 -70 -31 -246 -105 -255 -106 -5 -2 -27 -10 -49 -19 -21 -9
-40 -17 -42 -17 -2 0 -29 -12 -61 -27 -32 -15 -60 -28 -63 -28 -3 -1 -21 -8
-41 -17 -20 -9 -47 -19 -60 -23 -13 -4 -28 -11 -34 -15 -16 -11 -109 -45 -117
-42 -5 1 -8 -3 -8 -9 0 -5 -4 -7 -10 -4 -5 3 -10 1 -10 -4 0 -6 -6 -11 -14
-11 -12 0 -73 -24 -191 -75 -22 -10 -45 -19 -50 -20 -6 -2 -33 -13 -59 -25
-27 -12 -56 -23 -66 -25 -10 -2 -26 -8 -36 -14 -21 -12 -243 -102 -259 -105
-5 -1 -17 -6 -25 -11 -8 -5 -19 -10 -25 -12 -5 -1 -35 -11 -65 -23 -212 -83
-269 -90 -395 -49 -16 5 -88 28 -160 50 -71 22 -139 45 -150 50 -11 5 -31 12
-45 14 -13 3 -54 13 -90 24 -36 11 -78 23 -95 27 -41 10 -38 9 -60 17 -11 3
-31 9 -45 11 -14 3 -45 10 -70 16 -25 6 -54 12 -65 14 -11 2 -38 8 -60 14 -22
6 -53 13 -70 16 -16 3 -41 7 -55 10 -14 3 -41 7 -60 10 -19 2 -46 7 -60 10
-14 3 -47 9 -75 12 -27 3 -66 7 -85 9 -238 30 -1003 36 -1285 10 -134 -12
-166 -16 -295 -40 -47 -8 -94 -17 -105 -19 -17 -3 -86 -17 -107 -22 -5 -1 -9
-3 -10 -4 -2 -1 -16 -4 -33 -6 -16 -1 -66 -12 -110 -24 -44 -12 -89 -24 -100
-27 -40 -9 -50 -11 -50 -13 0 -1 -7 -3 -15 -5 -46 -10 -161 -45 -179 -54 -12
-7 -21 -10 -21 -7 0 3 -33 -6 -72 -20 -40 -14 -80 -27 -88 -29 -8 -2 -46 -13
-84 -24 -38 -11 -72 -19 -74 -16 -3 3 -11 0 -19 -7 -19 -15 -210 -14 -230 2
-2 2 -6 3 -10 4 -16 4 -89 28 -108 36 -11 4 -58 22 -105 40 -122 45 -340 130
-375 145 -16 7 -84 34 -150 60 -66 26 -133 53 -150 60 -177 77 -958 382 -999
389 -11 3 -21 5 -21 6 0 6 -53 12 -125 14 -91 2 -205 -17 -231 -40 -8 -8 -21
-14 -27 -14 -18 0 -162 -142 -187 -184 -48 -84 -53 -152 -60 -784 -3 -250 -7
-458 -11 -463 -3 -5 0 -9 6 -9 7 0 8 -6 1 -19 -6 -10 -8 -20 -6 -23 5 -5 6
-78 4 -513 -1 -192 0 -354 1 -360 1 -5 1 -12 0 -15 -7 -15 -4 -1720 3 -1720 5
0 5 -5 1 -11 -4 -7 -6 -50 -6 -98 2 -161 13 -496 17 -546 3 -27 7 -77 9 -110
5 -68 13 -128 21 -165 3 -14 8 -38 9 -55 5 -35 35 -173 43 -195 3 -8 7 -26 9
-40 2 -14 22 -83 44 -155 23 -71 45 -143 50 -160 57 -194 310 -711 395 -805 8
-9 15 -20 15 -25 0 -10 121 -179 132 -183 4 -2 8 -8 8 -13 0 -11 117 -156 189
-233 177 -190 444 -445 586 -558 44 -34 82 -66 83 -70 2 -5 10 -8 17 -8 8 0
19 -8 24 -17 6 -10 11 -14 11 -9 0 6 6 3 12 -5 17 -21 254 -179 267 -179 6 0
11 -4 11 -9 0 -5 8 -11 17 -15 10 -3 39 -19 65 -35 78 -49 136 -81 303 -166
190 -96 260 -128 420 -190 66 -25 128 -51 137 -56 10 -5 26 -9 36 -9 10 0 22
-4 27 -9 8 -7 211 -75 263 -88 6 -2 18 -5 25 -6 6 -2 26 -7 42 -11 17 -4 41
-12 55 -17 14 -4 36 -11 50 -13 14 -3 54 -12 90 -21 136 -34 183 -44 225 -49
11 -1 45 -8 75 -14 30 -6 69 -13 85 -15 17 -3 46 -8 65 -11 19 -3 53 -8 75
-10 22 -3 51 -7 65 -10 24 -4 107 -13 230 -22 156 -13 758 -5 950 11 30 3 82
7 115 10 33 2 76 7 95 10 19 2 57 7 84 10 27 3 53 8 57 11 5 3 27 7 50 9 23 2
49 7 59 10 10 3 31 8 46 10 98 14 547 127 604 152 8 3 20 7 25 8 17 5 169 56
190 65 114 48 303 122 313 122 6 1 12 5 12 10 0 4 9 8 20 8 11 0 20 5 20 10 0
6 7 10 15 10 19 0 329 157 415 210 36 22 77 46 93 52 15 7 27 16 27 20 0 4 6
8 14 8 7 0 19 7 26 15 7 9 15 13 17 11 3 -3 17 6 31 20 15 13 32 24 39 24 6 0
13 3 15 8 5 11 126 92 138 92 5 0 10 4 10 9 0 5 17 20 38 32 20 13 39 26 42
29 7 8 60 50 100 80 18 14 44 35 56 48 13 12 26 22 29 22 3 0 13 8 23 17 10
10 56 52 103 94 139 127 275 265 371 380 58 70 77 93 85 104 5 6 19 24 33 41
14 16 34 43 45 58 11 16 26 34 33 42 7 8 10 14 5 14 -4 0 0 5 10 11 9 5 17 16
17 24 0 7 4 15 8 17 12 4 129 185 195 300 98 171 204 399 266 573 18 50 35 97
38 105 3 8 7 20 9 25 1 6 9 29 18 53 8 23 15 43 15 45 0 1 2 9 4 17 8 24 38
139 42 158 2 9 10 47 19 85 9 37 18 82 21 100 3 17 8 40 11 49 3 9 6 32 8 50
2 19 6 43 9 54 4 10 9 46 12 79 6 67 15 140 21 170 2 11 7 135 10 275 2 140 7
256 9 258 2 3 0 13 -5 23 -6 10 -7 20 -3 22 7 5 10 2086 3 2112 -1 6 -2 15 0
20 2 11 1 237 -1 245 -1 3 -1 9 0 15 2 5 2 59 1 120 0 96 0 271 1 300 2 44
-12 920 -15 955 -8 101 -27 154 -82 226 -64 85 -178 170 -239 179 -11 2 -31 6
-45 10 -38 10 -231 14 -265 5z m-5730 -4434 c17 -3 46 -7 65 -10 86 -12 164
-44 252 -102 87 -58 228 -201 228 -231 0 -7 4 -13 9 -13 18 0 87 -159 108
-250 25 -112 16 -273 -24 -395 -9 -27 -16 -52 -17 -55 0 -12 -82 -149 -110
-185 -123 -157 -312 -265 -511 -291 -74 -9 -201 -4 -262 11 -13 3 -33 7 -45
10 -52 11 -205 82 -228 105 -3 3 -22 17 -42 33 -47 35 -131 123 -140 148 -4
10 -11 19 -16 19 -10 0 -84 147 -101 201 -39 121 -46 305 -17 414 1 6 6 26 10
45 12 48 70 172 106 225 114 166 317 296 506 323 51 8 177 6 229 -2z m3460 6
c5 -3 25 -7 45 -9 79 -8 194 -54 285 -114 140 -93 233 -209 306 -384 41 -98
55 -277 32 -405 -8 -41 -17 -82 -20 -90 -3 -8 -7 -17 -8 -20 -33 -96 -116
-240 -138 -240 -6 0 -8 -3 -4 -6 7 -7 -43 -57 -115 -114 -93 -73 -262 -144
-373 -156 -91 -9 -273 1 -292 16 -2 2 -6 3 -10 5 -52 14 -72 21 -114 41 -27
13 -52 24 -56 24 -11 0 -113 78 -164 126 -136 126 -224 309 -233 486 -1 26 -5
50 -8 54 -4 3 -2 19 2 35 5 18 5 29 -1 29 -6 0 -7 5 -3 12 4 7 9 28 11 48 5
45 7 56 22 110 14 49 61 162 72 170 3 3 13 19 22 36 15 30 139 161 182 194 22
17 117 74 125 75 3 1 21 9 40 19 31 17 93 37 154 51 10 2 20 6 22 8 6 6 208 5
219 -1z"/>
<path d="M1737 11504 c-1 -1 -33 -4 -72 -8 -38 -3 -80 -8 -91 -10 -12 -2 -39
-7 -60 -11 -22 -4 -43 -8 -49 -9 -5 -2 -28 -6 -50 -11 -22 -4 -44 -11 -50 -15
-5 -5 -13 -8 -18 -8 -15 -1 -72 -15 -87 -22 -8 -4 -42 -18 -75 -30 -114 -44
-316 -149 -370 -193 -5 -4 -35 -26 -65 -48 -78 -58 -153 -124 -224 -198 -87
-91 -87 -92 -126 -141 -19 -25 -38 -46 -42 -48 -5 -2 -8 -9 -8 -15 0 -7 -11
-25 -25 -40 -14 -15 -23 -27 -19 -27 4 0 0 -8 -8 -17 -29 -33 -148 -257 -154
-289 -1 -6 -9 -27 -17 -45 -37 -85 -91 -278 -101 -364 -2 -22 -5 -40 -6 -40
-11 0 -15 -209 -15 -730 0 -549 3 -677 20 -775 15 -83 33 -164 44 -192 6 -16
8 -28 5 -28 -2 0 2 -13 11 -30 9 -16 13 -30 11 -30 -9 0 76 -196 125 -288 63
-118 132 -222 211 -315 85 -101 268 -277 288 -277 4 0 13 -6 19 -14 50 -60
457 -278 492 -263 3 1 12 -3 20 -10 17 -13 130 -46 239 -68 53 -11 126 -24
140 -24 30 -1 125 -10 125 -11 0 -1 23 -2 50 -3 l50 -2 2 75 c1 41 2 80 3 85
4 32 1 125 -4 134 -4 5 -2 12 3 15 4 3 5 24 1 46 -4 21 -5 41 -3 44 7 7 6 284
-1 295 -4 5 -2 12 3 15 4 3 5 24 1 46 -4 21 -5 42 -2 44 7 7 5 123 -2 135 -4
5 -2 12 3 15 4 3 5 24 1 46 -4 22 -4 42 -1 45 4 2 4 29 1 59 -3 31 -2 60 3 65
5 5 4 12 -2 15 -7 5 -8 14 -2 24 4 9 7 26 5 37 -7 48 -8 71 -1 82 4 6 3 14 -3
18 -6 4 -7 13 -1 23 4 9 7 26 5 37 -7 48 -8 71 -1 82 4 6 3 14 -3 18 -6 4 -7
13 -1 23 4 9 7 26 5 37 -7 48 -8 71 -1 82 4 6 3 14 -3 18 -6 4 -7 13 -1 23 4
9 7 26 5 37 -3 20 -6 182 -4 200 4 31 1 125 -4 134 -4 5 -2 12 3 15 4 3 5 24
1 46 -4 21 -5 42 -2 44 7 7 5 123 -2 135 -4 5 -2 12 3 15 4 3 5 24 1 46 -4 21
-5 42 -2 44 7 7 5 123 -2 135 -4 5 -2 12 3 15 4 3 5 24 1 46 -4 21 -5 42 -2
44 7 7 5 123 -2 135 -4 5 -2 12 3 15 4 3 5 24 1 46 -4 21 -5 42 -2 44 7 7 5
123 -2 135 -4 5 -2 12 4 16 6 4 7 12 0 24 -6 12 -5 22 1 28 8 8 7 13 0 17 -7
5 -8 14 -2 24 4 9 7 26 5 37 -7 48 -8 71 -1 82 4 6 3 14 -3 18 -6 4 -7 13 -1
23 4 9 7 26 5 37 -7 48 -8 71 -1 82 4 6 3 14 -3 18 -6 4 -7 13 -1 23 4 9 7 26
5 37 -7 48 -8 71 -1 82 4 6 3 14 -3 18 -6 4 -7 13 -1 23 4 9 7 26 5 36 -3 23
-6 107 -4 121 4 28 1 125 -4 134 -4 5 -2 12 3 15 4 3 5 24 1 46 -4 21 -5 42
-2 44 7 7 5 123 -2 135 -4 5 -2 12 3 15 4 3 5 24 1 46 -4 21 -5 41 -3 44 7 7
6 284 -1 295 -4 5 -3 12 1 14 5 3 6 28 5 55 l-4 51 -60 -2 c-33 -1 -60 -3 -61
-3z"/>
<path d="M12559 11501 c-5 -44 -3 -242 3 -259 4 -13 5 -21 0 -19 -4 3 -7 -30
-7 -74 0 -43 3 -79 7 -79 4 0 3 -12 0 -27 -9 -35 -8 -264 1 -287 4 -9 3 -15
-1 -12 -4 2 -7 -9 -7 -24 0 -15 3 -26 7 -24 4 3 5 -3 1 -12 -9 -25 -10 -127
-1 -146 5 -10 5 -18 1 -18 -10 0 -8 -233 2 -250 5 -7 4 -11 -1 -8 -5 4 -9 -28
-9 -73 0 -43 3 -79 7 -79 4 0 3 -12 0 -27 -9 -35 -8 -264 1 -287 4 -9 3 -15
-1 -12 -4 2 -7 -9 -7 -24 0 -15 3 -26 7 -24 4 3 5 -3 1 -12 -9 -25 -10 -127
-1 -146 5 -10 5 -18 1 -18 -10 0 -8 -233 2 -250 5 -7 4 -11 -1 -7 -11 6 -10
-136 1 -154 5 -6 4 -10 -1 -7 -5 4 -9 -7 -9 -22 0 -15 3 -26 7 -24 4 3 5 -3 1
-12 -9 -25 -10 -127 -1 -146 5 -10 5 -18 1 -18 -10 0 -8 -233 2 -250 5 -7 4
-11 -1 -8 -5 4 -9 -28 -9 -73 0 -43 3 -79 7 -79 4 0 3 -12 0 -27 -9 -35 -8
-264 1 -287 4 -9 3 -15 -1 -12 -4 2 -7 -9 -7 -24 0 -15 3 -26 7 -24 4 3 5 -3
1 -12 -9 -25 -10 -127 -1 -146 5 -10 5 -18 1 -18 -10 0 -8 -233 2 -250 5 -7 4
-11 -1 -8 -5 4 -9 -28 -9 -73 0 -43 3 -79 7 -79 4 0 3 -12 0 -27 -9 -35 -8
-264 1 -287 4 -9 3 -15 -1 -12 -4 2 -7 -9 -7 -24 0 -15 4 -26 9 -23 5 4 6 0 1
-7 -10 -17 -13 -240 -3 -233 5 2 4 -6 -1 -19 -14 -38 -5 -43 66 -41 38 1 68 2
68 3 0 1 88 11 130 13 17 2 36 6 43 11 7 4 16 6 18 3 3 -3 21 -1 41 5 19 5 43
11 52 13 54 10 211 58 246 74 11 6 43 20 70 31 110 48 257 130 330 185 126 95
355 310 355 333 0 5 8 16 19 26 10 9 40 49 67 89 27 39 52 74 55 77 26 21 178
353 194 424 2 11 14 53 25 91 11 39 23 86 25 105 3 19 7 46 10 60 17 81 20
195 20 760 0 557 -4 713 -19 786 -2 12 -7 37 -10 55 -3 19 -10 49 -15 67 -5
17 -7 32 -4 32 3 0 1 6 -5 13 -5 6 -12 26 -15 42 -3 17 -14 55 -26 85 -11 30
-27 75 -36 100 -22 61 -137 280 -147 280 -4 0 -8 5 -8 11 0 9 -54 93 -70 109
-3 3 -18 22 -33 42 -39 53 -102 122 -176 192 -90 86 -92 88 -136 121 -22 16
-44 33 -50 37 -25 20 -100 73 -105 73 -3 0 -23 12 -45 26 -120 76 -378 181
-504 205 -8 1 -46 10 -85 18 -110 24 -345 42 -347 27z"/>
</g>
</svg>
