<?xml version="1.0" standalone="no"?>
<!DOCTYPE svg PUBLIC "-//W3C//DTD SVG 20010904//EN"
 "http://www.w3.org/TR/2001/REC-SVG-20010904/DTD/svg10.dtd">
<svg version="1.0" xmlns="http://www.w3.org/2000/svg"
 width="800.000000pt" height="800.000000pt" viewBox="0 0 800.000000 800.000000"
 preserveAspectRatio="xMidYMid meet">
<metadata>
Created by potrace 1.14, written by Peter Selinger 2001-2017
</metadata>
<g transform="translate(0.000000,800.000000) scale(0.100000,-0.100000)"
fill="#000000" stroke="none">
<path d="M2096 5183 c-34 -7 -77 -19 -96 -27 -19 -8 -42 -17 -50 -21 -98 -40
-224 -165 -280 -276 -64 -129 -73 -191 -68 -472 4 -212 7 -250 26 -307 39
-119 123 -236 222 -312 82 -62 224 -115 325 -121 l45 -3 0 776 0 776 -32 -1
c-17 0 -59 -6 -92 -12z"/>
<path d="M5245 5150 c-66 -28 -129 -54 -140 -60 -51 -23 -316 -130 -362 -145
-38 -12 -59 -14 -84 -7 -19 5 -74 22 -124 37 -194 58 -254 67 -505 71 -178 2
-253 0 -310 -12 -41 -8 -86 -16 -100 -19 -14 -3 -65 -17 -115 -31 -216 -62
-192 -61 -326 -9 -52 20 -98 37 -104 39 -5 2 -21 8 -35 13 -237 101 -413 163
-457 163 -55 0 -101 -24 -137 -73 -21 -28 -21 -33 -21 -780 0 -414 3 -779 7
-812 35 -299 223 -615 493 -828 33 -26 66 -52 73 -58 7 -6 46 -30 88 -55 279
-165 574 -248 879 -248 117 0 312 11 323 17 4 3 25 8 47 11 85 14 244 61 340
101 486 202 799 570 886 1040 17 92 18 158 16 845 l-2 745 -24 33 c-36 47 -64
62 -129 68 -51 4 -69 -1 -177 -46z m-547 -1459 c148 -76 181 -292 61 -409
-104 -102 -267 -98 -369 9 -42 44 -70 114 -70 174 0 152 144 277 291 254 26
-4 65 -17 87 -28z m-1159 5 c49 -26 105 -92 125 -146 60 -166 -62 -338 -242
-342 -184 -4 -314 201 -231 367 27 55 93 117 141 133 44 15 168 8 207 -12z"/>
<path d="M5789 5187 c-3 -40 -4 -1514 -1 -1525 5 -15 77 -9 162 14 218 60 382
231 434 454 13 52 15 115 12 315 -2 138 -5 257 -8 265 -3 8 -8 29 -13 45 -4
17 -24 64 -44 105 -69 144 -229 274 -386 313 -89 23 -155 28 -156 14z"/>
</g>
</svg>
