<svg width="711" height="424" viewBox="0 0 711 424" fill="none" xmlns="http://www.w3.org/2000/svg">
<mask id="mask0_7_32" style="mask-type:alpha" maskUnits="userSpaceOnUse" x="0" y="0" width="711" height="424">
<path fill-rule="evenodd" clip-rule="evenodd" d="M555.502 1.01564C553.733 1.69794 532.931 10.3164 509.276 20.1668C485.621 30.0172 464.26 38.5267 461.806 39.0764C456.45 40.2764 454.809 39.9846 440.949 35.3594C425.83 30.3153 410.836 26.6166 395.917 24.2514C378.48 21.4875 334.201 21.2387 317.717 23.8133C301.431 26.3569 287.461 29.7053 271.987 34.7741C261.661 38.1563 256.415 39.413 252.675 39.3984C248.139 39.381 242.017 37.1521 200.085 20.2537C152.829 1.20862 152.601 1.12814 145.77 1.15832C137.628 1.19399 133.292 3.09273 128.012 8.93712C121.021 16.6757 121.565 7.48288 121.247 123.229C120.951 231.045 121.216 241.206 124.763 258.118C130.868 287.225 143.495 314.018 161.841 336.792C170.127 347.078 187.662 364.288 197.903 372.186C234.804 400.646 280.151 418.307 329.072 423.271C343.074 424.693 378.575 423.926 392.258 421.908C472.46 410.077 538.636 365.387 569.681 302.091C580.085 280.879 586.399 257.923 588.438 233.898C589.169 225.282 589.397 190.866 589.193 120.028C588.903 19.3134 588.885 18.4729 586.991 14.38C584.665 9.3551 580.358 4.91098 575.304 2.31988C570.59 -0.0965331 560.163 -0.783408 555.502 1.01564ZM283.659 221.261C293.605 224.983 303.276 235.436 306.35 245.788C313.661 270.413 295.242 295.177 269.616 295.177C248.47 295.177 231.583 278.164 231.583 256.861C231.583 238.606 244.244 223.007 262.087 219.28C267.612 218.126 277.773 219.059 283.659 221.261ZM447.089 219.251C465.239 222.223 478.851 238.285 478.851 256.73C478.851 293.87 432.366 309.226 409.927 279.499C400.946 267.601 400.07 250.383 407.777 237.233C412.774 228.705 423.317 221.257 433.12 219.328C438.637 218.242 440.855 218.23 447.089 219.251Z" fill="black"/>
<path d="M710.422 91.4646C710.422 41.2796 669.739 0.596695 619.554 0.596695V229.143C669.739 229.143 710.422 188.46 710.422 138.275V91.4646Z" fill="black"/>
<path d="M0 92.3822C0 41.6904 41.0939 0.596573 91.7857 0.596573V230.061C41.0939 230.061 0 188.967 0 138.275V92.3822Z" fill="black"/>
</mask>
<g mask="url(#mask0_7_32)">
<rect x="-145" y="-260" width="1040" height="489" fill="#028FE0"/>
<g filter="url(#filter0_d_7_32)">
<path fill-rule="evenodd" clip-rule="evenodd" d="M-145 136.66L-102.746 162.214C-61.9014 189.272 21.1972 243.388 105.704 231.362C188.803 220.84 271.901 147.182 355 130.647C438.099 114.112 522.606 157.705 605.704 183.259C688.803 210.317 771.901 220.84 814.155 226.852L855 231.362V296H814.155C771.901 296 688.803 296 605.704 296C522.606 296 438.099 296 355 296C271.901 296 188.803 296 105.704 296C21.1972 296 -61.9014 296 -102.746 296H-145V136.66Z" fill="#00A3FF"/>
<path fill-rule="evenodd" clip-rule="evenodd" d="M-145 136.66L-102.746 162.214C-61.9014 189.272 21.1972 243.388 105.704 231.362C188.803 220.84 271.901 147.182 355 130.647C438.099 114.112 522.606 157.705 605.704 183.259C688.803 210.317 771.901 220.84 814.155 226.852L855 231.362V296H814.155C771.901 296 688.803 296 605.704 296C522.606 296 438.099 296 355 296C271.901 296 188.803 296 105.704 296C21.1972 296 -61.9014 296 -102.746 296H-145V136.66Z" stroke="black"/>
</g>
<rect x="-145" y="296" width="1000" height="128" fill="#00A3FF"/>
</g>
<defs>
<filter id="filter0_d_7_32" x="-345" y="-73" width="1400" height="569" filterUnits="userSpaceOnUse" color-interpolation-filters="sRGB">
<feFlood flood-opacity="0" result="BackgroundImageFix"/>
<feColorMatrix in="SourceAlpha" type="matrix" values="0 0 0 0 0 0 0 0 0 0 0 0 0 0 0 0 0 0 127 0" result="hardAlpha"/>
<feOffset/>
<feGaussianBlur stdDeviation="100"/>
<feComposite in2="hardAlpha" operator="out"/>
<feColorMatrix type="matrix" values="0 0 0 0 0 0 0 0 0 0 0 0 0 0 0 0 0 0 0.5 0"/>
<feBlend mode="normal" in2="BackgroundImageFix" result="effect1_dropShadow_7_32"/>
<feBlend mode="normal" in="SourceGraphic" in2="effect1_dropShadow_7_32" result="shape"/>
</filter>
</defs>
</svg>
